<?xml version="1.0" encoding="UTF-8"?>
<svg xmlns="http://www.w3.org/2000/svg" xmlns:xlink="http://www.w3.org/1999/xlink" width="207.2pt" height="216.8pt" viewBox="0 0 207.2 216.8" version="1.1">
<defs>
<clipPath id="clip1">
  <path d="M 0 9 L 207 9 L 207 216.800781 L 0 216.800781 Z M 0 9 "/>
</clipPath>
<clipPath id="clip2">
  <path d="M 0 8 L 207.199219 8 L 207.199219 216.800781 L 0 216.800781 Z M 0 8 "/>
</clipPath>
</defs>
<g id="surface1">
<path style="fill-rule:evenodd;fill:rgb(83.201599%,6.665039%,6.665039%);fill-opacity:1;stroke-width:2;stroke-linecap:butt;stroke-linejoin:miter;stroke:rgb(0%,0%,0%);stroke-opacity:1;stroke-miterlimit:4;" d="M 1363.515625 1387.296875 L 1635.429688 1387.296875 L 1635.429688 980.578125 L 1217.851563 980.578125 L 1217.851563 1236.75 Z M 1363.515625 1387.296875 " transform="matrix(0.1,0,0,-0.1,0,216.8)"/>
<g clip-path="url(#clip1)" clip-rule="nonzero">
<path style=" stroke:none;fill-rule:evenodd;fill:rgb(0%,0%,0%);fill-opacity:1;" d="M 179.90625 105.53125 L 179.820313 105.476563 C 179.699219 106.511719 179.542969 107.605469 179.347656 108.761719 L 176.085938 139.902344 C 177.808594 139.792969 177.945313 144.882813 178.914063 158.070313 C 178.945313 158.542969 178.835938 157.898438 178.863281 158.382813 C 179.199219 163.75 179.152344 170.433594 179.503906 176.433594 C 186.132813 167.820313 188.203125 157.203125 185.042969 146.796875 C 174.605469 123.136719 184.089844 106.871094 197.925781 98.226563 C 205.277344 97.246094 207.25 108.304688 206.292969 127.867188 C 203.644531 133.082031 196.257813 132.828125 194.535156 124.960938 C 193.964844 125.25 193.222656 127.277344 192.742188 128.566406 C 190.089844 123.050781 191.050781 116.949219 195.632813 110.253906 C 196.316406 115.132813 198.125 119.929688 201.109375 123.914063 C 199.761719 123.378906 198.386719 123.011719 197.851563 123.746094 C 199.722656 127.976563 202.164063 127.542969 202.113281 124.546875 C 201.914063 120.527344 201.835938 116.578125 200.78125 112.582031 C 200.457031 104.617188 197.441406 104.078125 193.628906 108.429688 C 187.574219 117.652344 185.269531 128.4375 189.648438 142.007813 C 196.992188 155.949219 195.410156 174.148438 182.070313 185.945313 C 186.589844 184.945313 190.859375 184.226563 195.484375 184.167969 C 197.878906 184.519531 200.59375 185.773438 202.988281 187.171875 C 204.199219 188.007813 203.238281 188.539063 202.835938 188.398438 L 198.378906 187.476563 C 197.261719 187.230469 197.148438 187.339844 198.035156 187.800781 L 202.589844 189.539063 C 202.761719 189.765625 202.96875 190.46875 202.675781 190.953125 C 203.566406 193.046875 203.042969 193.597656 200.824219 193.820313 L 193.101563 192.511719 C 192.792969 192.539063 183.964844 193.632813 188.089844 194.171875 L 193.554688 196.941406 C 195.070313 197.734375 194 198.140625 193.28125 198.105469 C 189.679688 197.914063 186.492188 197.097656 183.757813 197.261719 C 183.308594 197.289063 182.085938 197.101563 181.628906 197.058594 C 178.378906 196.75 176.472656 196.292969 175.824219 194.988281 C 175.265625 193.917969 174.726563 192.53125 174.207031 191.378906 C 164.578125 196.589844 155.496094 194.691406 146.964844 185.679688 C 144 193.007813 138.046875 198.921875 129.011719 201.242188 C 119.542969 202.871094 111.777344 202.25 105.753906 198.304688 C 85.496094 196.710938 69.777344 173.652344 62.488281 150.160156 C 58.632813 159.007813 52.105469 166.832031 43.851563 172.421875 C 37.054688 177.023438 28.917969 184.140625 23.691406 193.382813 C 25.179688 193.875 25.890625 194.933594 26.070313 196.382813 C 26.304688 197.621094 24.835938 198.789063 23.597656 200.957031 C 23.367188 201.359375 23.273438 201.867188 23.125 202.398438 C 22.601563 204.257813 22.363281 207.011719 22.1875 209.980469 L 21.144531 209.972656 L 20.898438 202.496094 C 20.425781 199.71875 17.285156 203.914063 14.390625 210.257813 C 10.457031 215.402344 5.664063 216.78125 0.394531 216.039063 L 4.742188 213.234375 C 4.945313 203.09375 7.84375 194.382813 12.589844 186.648438 C 23.65625 170.730469 34.179688 155.125 41.058594 141.84375 C 46.925781 131.667969 48.589844 126.429688 52.457031 121.164063 C 55.078125 118.863281 58.191406 117.058594 61.445313 116.753906 C 57.785156 112.640625 49.738281 108.953125 45.800781 101.828125 C 39.660156 90.707031 36.765625 74.683594 35.652344 53.328125 C 32.675781 53.789063 28.375 55.152344 27.507813 53.664063 C 25.226563 48.476563 21.679688 45.035156 17.257813 42.792969 L 17.457031 41.363281 C 25.082031 46.84375 29.160156 47.089844 27.585938 42.902344 C 26.738281 39.308594 25.304688 36.300781 23.121094 34.042969 C 22.476563 27.605469 24.636719 21.972656 29.609375 17.144531 L 29.386719 26.511719 C 29.785156 23.765625 44.824219 40.664063 53.046875 67.664063 C 53.261719 68.371094 53.628906 69.015625 53.914063 69.695313 C 60.53125 85.578125 69.683594 99.925781 71.980469 101.601563 C 75.964844 107.890625 92.335938 123.214844 104.328125 136.40625 C 109.433594 142.027344 112.308594 146.890625 113.875 150.964844 C 113.953125 151.164063 114.027344 151.363281 114.097656 151.5625 C 116.363281 147.910156 117.773438 144.660156 117.945313 141.207031 C 115.832031 134.644531 116.09375 130.675781 115.835938 123.101563 C 115.507813 122.878906 115.183594 122.632813 114.863281 122.359375 C 112.441406 119.480469 110.527344 114.128906 110.152344 107.011719 C 110.519531 104.78125 110.789063 103.746094 112.085938 103.082031 C 114.132813 101.449219 116.679688 100.367188 119.570313 99.367188 C 115.953125 97.316406 112.996094 94.292969 111 89.851563 C 107.84375 82.265625 109.738281 73.585938 112.316406 72.992188 C 117.601563 72.246094 121.964844 74.359375 126.121094 77.292969 C 128.875 79.445313 128.859375 81.355469 127.289063 83.128906 C 123.519531 83.320313 120.757813 82.441406 119.433594 80.023438 C 119.414063 79.988281 119.398438 79.953125 119.378906 79.921875 C 118.992188 79.277344 119.253906 79.320313 119.699219 79.65625 C 119.714844 79.671875 119.742188 79.675781 119.761719 79.6875 C 123.871094 81.605469 124.613281 80.953125 121.46875 77.945313 L 121.363281 78 C 115.398438 74.257813 113.832031 78.816406 120.675781 83.507813 C 125.605469 86.625 131.714844 85.460938 133.179688 78.925781 C 130.476563 77.585938 129.980469 74.65625 129.429688 70.882813 C 129.316406 70.101563 128.925781 69.34375 128.867188 68.496094 C 127.261719 67.710938 125.648438 66.105469 124.800781 64.8125 C 125.828125 65.296875 127.21875 66.019531 127.992188 65.996094 C 126.554688 64.445313 125.171875 61.4375 124.617188 58.617188 C 115.878906 54.613281 116.230469 42.621094 119.386719 34.351563 C 120.480469 39.15625 121.765625 45.519531 124.273438 48.171875 C 125.28125 45.984375 127.023438 44.152344 128.902344 42.976563 C 129.167969 42.8125 128.785156 42.148438 128.980469 41.90625 C 123.195313 34.296875 123.050781 26.6875 128.554688 19.078125 C 152.410156 -0.0546875 186.695313 10.742188 186.230469 39.175781 C 185.378906 48.644531 182.785156 56.957031 178.457031 64.109375 C 175.628906 68.609375 174.28125 72.949219 174 76.417969 C 173.589844 87.265625 180.792969 89.476563 188.460938 80.816406 C 189.992188 74.882813 189.222656 72.660156 186.640625 73.988281 C 181.011719 77.871094 181.71875 81.128906 186.210938 76.988281 C 186.273438 76.929688 186.351563 76.882813 186.402344 76.808594 C 187.320313 75.539063 187.523438 75.699219 187.019531 77.289063 C 187 77.351563 186.984375 77.417969 186.964844 77.484375 C 186.335938 79.726563 184.9375 81.804688 181.566406 82.308594 C 177.90625 80.363281 178.414063 76.582031 183.09375 70.960938 C 191.039063 62.644531 195.304688 64.925781 197.058594 74.457031 C 196.574219 93.710938 189.957031 102.546875 179.90625 105.53125 Z M 171.371094 184.277344 C 168.867188 177.210938 166.804688 169.078125 165.035156 160.246094 C 163.664063 151.761719 162.65625 142.671875 162.441406 132.253906 C 162.546875 131.382813 162.632813 130.535156 162.699219 129.71875 C 160.203125 131.65625 157.449219 133.898438 155.792969 135.414063 C 155.410156 135.765625 154.925781 135.789063 154.679688 136.050781 C 154.597656 135.972656 154.675781 136.179688 154.59375 136.105469 C 151.039063 139.46875 139.902344 147.789063 141.140625 150.101563 C 141.191406 150.199219 142.582031 153.363281 142.683594 153.5 C 145.4375 157.246094 146.421875 161.15625 147.546875 165.484375 C 148.046875 164.890625 155.742188 190.316406 171.371094 184.277344 Z M 156.492188 82.234375 L 158.171875 77.542969 C 155.609375 80.277344 152.808594 83.308594 149.792969 85.167969 C 149.035156 87.105469 148.195313 88.34375 147.046875 90.015625 L 144.101563 94.160156 L 143.421875 94.484375 L 146.125 90.449219 C 144.980469 90.296875 143.75 90.078125 142.214844 90.449219 C 137.828125 93.113281 133.746094 95.855469 133.132813 97.984375 C 129.101563 97.800781 126.050781 98.59375 123.589844 100.371094 C 120.847656 106.835938 123.765625 117.1875 127.539063 117.492188 C 128.550781 113.34375 130.027344 110.046875 132.175781 107.988281 C 132.601563 106.488281 132.613281 105.46875 132.558594 103.554688 C 132.546875 103.101563 133.230469 103.472656 133.207031 103.777344 C 133.097656 105.136719 133.246094 105.605469 133.546875 106.832031 C 135.859375 104.855469 138.078125 104.394531 140.261719 104.625 C 133.214844 106.613281 130.777344 110.964844 130.628906 115.648438 C 136.71875 109.371094 142.394531 107.503906 152.296875 107.21875 C 153.902344 100.449219 157.691406 95.34375 162.597656 89.351563 L 159.78125 89.148438 C 156.605469 88.925781 155.230469 86.898438 156.492188 82.234375 Z M 156.492188 82.234375 "/>
</g>
<g clip-path="url(#clip2)" clip-rule="nonzero">
<path style="fill:none;stroke-width:2.16;stroke-linecap:butt;stroke-linejoin:miter;stroke:rgb(0%,0%,0%);stroke-opacity:1;stroke-miterlimit:4;" d="M 1799.0625 1112.6875 L 1798.203125 1113.234375 C 1796.992188 1102.882813 1795.429688 1091.945313 1793.476563 1080.382813 L 1760.859375 768.976563 C 1778.085938 770.070313 1779.453125 719.171875 1789.140625 587.296875 C 1789.453125 582.570313 1788.359375 589.015625 1788.632813 584.171875 C 1791.992188 530.5 1791.523438 463.664063 1795.039063 403.664063 C 1861.328125 489.796875 1882.03125 595.96875 1850.429688 700.03125 C 1746.054688 936.632813 1840.898438 1099.289063 1979.257813 1185.734375 C 2052.773438 1195.539063 2072.5 1084.953125 2062.929688 889.328125 C 2036.445313 837.179688 1962.578125 839.71875 1945.351563 918.390625 C 1939.648438 915.5 1932.226563 895.226563 1927.421875 882.335938 C 1900.898438 937.492188 1910.507813 998.507813 1956.328125 1065.460938 C 1963.164063 1016.671875 1981.25 968.703125 2011.09375 928.859375 C 1997.617188 934.210938 1983.867188 937.882813 1978.515625 930.539063 C 1997.226563 888.234375 2021.640625 892.570313 2021.132813 922.53125 C 2019.140625 962.726563 2018.359375 1002.21875 2007.8125 1042.179688 C 2004.570313 1121.828125 1974.414063 1127.21875 1936.289063 1083.703125 C 1875.742188 991.476563 1852.695313 883.625 1896.484375 747.921875 C 1969.921875 608.507813 1954.101563 426.515625 1820.703125 308.546875 C 1865.898438 318.546875 1908.59375 325.734375 1954.84375 326.320313 C 1978.789063 322.804688 2005.9375 310.265625 2029.882813 296.28125 C 2041.992188 287.921875 2032.382813 282.609375 2028.359375 284.015625 L 1983.789063 293.234375 C 1972.617188 295.695313 1971.484375 294.601563 1980.351563 289.992188 L 2025.898438 272.609375 C 2027.617188 270.34375 2029.6875 263.3125 2026.757813 258.46875 C 2035.664063 237.53125 2030.429688 232.023438 2008.242188 229.796875 L 1931.015625 242.882813 C 1927.929688 242.609375 1839.648438 231.671875 1880.898438 226.28125 L 1935.546875 198.585938 C 1950.703125 190.65625 1940 186.59375 1932.8125 186.945313 C 1896.796875 188.859375 1864.921875 197.023438 1837.578125 195.382813 C 1833.085938 195.109375 1820.859375 196.984375 1816.289063 197.414063 C 1783.789063 200.5 1764.726563 205.070313 1758.242188 218.117188 C 1752.65625 228.820313 1747.265625 242.6875 1742.070313 254.210938 C 1645.78125 202.101563 1554.960938 221.085938 1469.648438 311.203125 C 1440 237.921875 1380.46875 178.78125 1290.117188 155.578125 C 1195.429688 139.289063 1117.773438 145.5 1057.539063 184.953125 C 854.960938 200.890625 697.773438 431.476563 624.882813 666.398438 C 586.328125 577.921875 521.054688 499.679688 438.515625 443.78125 C 370.546875 397.765625 289.179688 326.59375 236.914063 234.171875 C 251.796875 229.25 258.90625 218.664063 260.703125 204.171875 C 263.046875 191.789063 248.359375 180.109375 235.976563 158.429688 C 233.671875 154.40625 232.734375 149.328125 231.25 144.015625 C 226.015625 125.421875 223.632813 97.882813 221.875 68.195313 L 211.445313 68.273438 L 208.984375 143.039063 C 204.257813 170.8125 172.851563 128.859375 143.90625 65.421875 C 104.570313 13.976563 56.640625 0.1875 3.945313 7.609375 L 47.421875 35.65625 C 49.453125 137.0625 78.4375 224.171875 125.898438 301.515625 C 236.5625 460.695313 341.796875 616.75 410.585938 749.5625 C 469.257813 851.320313 485.898438 903.703125 524.570313 956.359375 C 550.78125 979.367188 581.914063 997.414063 614.453125 1000.460938 C 577.851563 1041.59375 497.382813 1078.46875 458.007813 1149.71875 C 396.601563 1260.929688 367.65625 1421.164063 356.523438 1634.71875 C 326.757813 1630.109375 283.75 1616.476563 275.078125 1631.359375 C 252.265625 1683.234375 216.796875 1717.648438 172.578125 1740.070313 L 174.570313 1754.367188 C 250.820313 1699.5625 291.601563 1697.101563 275.859375 1738.976563 C 267.382813 1774.914063 253.046875 1804.992188 231.210938 1827.570313 C 224.765625 1891.945313 246.367188 1948.273438 296.09375 1996.554688 L 293.867188 1902.882813 C 297.851563 1930.34375 448.242188 1761.359375 530.46875 1491.359375 C 532.617188 1484.289063 536.289063 1477.84375 539.140625 1471.046875 C 605.3125 1312.21875 696.835938 1168.742188 719.804688 1151.984375 C 759.648438 1089.09375 923.359375 935.851563 1043.28125 803.9375 C 1094.335938 747.726563 1123.085938 699.09375 1138.75 658.351563 C 1139.53125 656.359375 1140.273438 654.367188 1140.976563 652.375 C 1163.632813 688.898438 1177.734375 721.398438 1179.453125 755.929688 C 1158.320313 821.554688 1160.9375 861.242188 1158.359375 936.984375 C 1155.078125 939.210938 1151.835938 941.671875 1148.632813 944.40625 C 1124.414063 973.195313 1105.273438 1026.710938 1101.523438 1097.882813 C 1105.195313 1120.1875 1107.890625 1130.539063 1120.859375 1137.179688 C 1141.328125 1153.507813 1166.796875 1164.328125 1195.703125 1174.328125 C 1159.53125 1194.835938 1129.960938 1225.070313 1110 1269.484375 C 1078.4375 1345.34375 1097.382813 1432.140625 1123.164063 1438.078125 C 1176.015625 1445.539063 1219.648438 1424.40625 1261.210938 1395.070313 C 1288.75 1373.546875 1288.59375 1354.445313 1272.890625 1336.710938 C 1235.195313 1334.796875 1207.578125 1343.585938 1194.335938 1367.765625 C 1194.140625 1368.117188 1193.984375 1368.46875 1193.789063 1368.78125 C 1189.921875 1375.226563 1192.539063 1374.796875 1196.992188 1371.4375 C 1197.148438 1371.28125 1197.421875 1371.242188 1197.617188 1371.125 C 1238.710938 1351.945313 1246.132813 1358.46875 1214.6875 1388.546875 L 1213.632813 1388 C 1153.984375 1425.421875 1138.320313 1379.835938 1206.757813 1332.921875 C 1256.054688 1301.75 1317.148438 1313.390625 1331.796875 1378.742188 C 1304.765625 1392.140625 1299.804688 1421.4375 1294.296875 1459.171875 C 1293.164063 1466.984375 1289.257813 1474.5625 1288.671875 1483.039063 C 1272.617188 1490.890625 1256.484375 1506.945313 1248.007813 1519.875 C 1258.28125 1515.03125 1272.1875 1507.804688 1279.921875 1508.039063 C 1265.546875 1523.546875 1251.71875 1553.625 1246.171875 1581.828125 C 1158.789063 1621.867188 1162.304688 1741.789063 1193.867188 1824.484375 C 1204.804688 1776.4375 1217.65625 1712.804688 1242.734375 1686.28125 C 1252.8125 1708.15625 1270.234375 1726.476563 1289.023438 1738.234375 C 1291.679688 1739.875 1287.851563 1746.515625 1289.804688 1748.9375 C 1231.953125 1825.03125 1230.507813 1901.125 1285.546875 1977.21875 C 1524.101563 2168.546875 1866.953125 2060.578125 1862.304688 1776.242188 C 1853.789063 1681.554688 1827.851563 1598.429688 1784.570313 1526.90625 C 1756.289063 1481.90625 1742.8125 1438.507813 1740 1403.820313 C 1735.898438 1295.34375 1807.929688 1273.234375 1884.609375 1359.835938 C 1899.921875 1419.171875 1892.226563 1441.398438 1866.40625 1428.117188 C 1810.117188 1389.289063 1817.1875 1356.710938 1862.109375 1398.117188 C 1862.734375 1398.703125 1863.515625 1399.171875 1864.023438 1399.914063 C 1873.203125 1412.609375 1875.234375 1411.007813 1870.195313 1395.109375 C 1870 1394.484375 1869.84375 1393.820313 1869.648438 1393.15625 C 1863.359375 1370.734375 1849.375 1349.953125 1815.664063 1344.914063 C 1779.0625 1364.367188 1784.140625 1402.179688 1830.9375 1458.390625 C 1910.390625 1541.554688 1953.046875 1518.742188 1970.585938 1423.429688 C 1965.742188 1230.890625 1899.570313 1142.53125 1799.0625 1112.6875 Z M 1713.710938 325.226563 C 1688.671875 395.890625 1668.046875 477.21875 1650.351563 565.539063 C 1636.640625 650.382813 1626.5625 741.28125 1624.414063 845.460938 C 1625.46875 854.171875 1626.328125 862.648438 1626.992188 870.8125 C 1602.03125 851.4375 1574.492188 829.015625 1557.929688 813.859375 C 1554.101563 810.34375 1549.257813 810.109375 1546.796875 807.492188 C 1545.976563 808.273438 1546.757813 806.203125 1545.9375 806.945313 C 1510.390625 773.3125 1399.023438 690.109375 1411.40625 666.984375 C 1411.914063 666.007813 1425.820313 634.367188 1426.835938 633 C 1454.375 595.539063 1464.21875 556.4375 1475.46875 513.15625 C 1480.46875 519.09375 1557.421875 264.835938 1713.710938 325.226563 Z M 1564.921875 1345.65625 L 1581.71875 1392.570313 C 1556.09375 1365.226563 1528.085938 1334.914063 1497.929688 1316.320313 C 1490.351563 1296.945313 1481.953125 1284.5625 1470.46875 1267.84375 L 1441.015625 1226.398438 L 1434.21875 1223.15625 L 1461.25 1263.507813 C 1449.804688 1265.03125 1437.5 1267.21875 1422.148438 1263.507813 C 1378.28125 1236.867188 1337.460938 1209.445313 1331.328125 1188.15625 C 1291.015625 1189.992188 1260.507813 1182.0625 1235.898438 1164.289063 C 1208.476563 1099.640625 1237.65625 996.125 1275.390625 993.078125 C 1285.507813 1034.5625 1300.273438 1067.53125 1321.757813 1088.117188 C 1326.015625 1103.117188 1326.132813 1113.3125 1325.585938 1132.453125 C 1325.46875 1136.984375 1332.304688 1133.273438 1332.070313 1130.226563 C 1330.976563 1116.632813 1332.460938 1111.945313 1335.46875 1099.679688 C 1358.59375 1119.445313 1380.78125 1124.054688 1402.617188 1121.75 C 1332.148438 1101.867188 1307.773438 1058.351563 1306.289063 1011.515625 C 1367.1875 1074.289063 1423.945313 1092.960938 1522.96875 1095.8125 C 1539.023438 1163.507813 1576.914063 1214.5625 1625.976563 1274.484375 L 1597.8125 1276.515625 C 1566.054688 1278.742188 1552.304688 1299.015625 1564.921875 1345.65625 Z M 1564.921875 1345.65625 " transform="matrix(0.1,0,0,-0.1,0,216.8)"/>
</g>
<path style="fill-rule:evenodd;fill:rgb(94.921875%,5.488586%,5.488586%);fill-opacity:1;stroke-width:2;stroke-linecap:butt;stroke-linejoin:miter;stroke:rgb(0%,0%,0%);stroke-opacity:1;stroke-miterlimit:4;" d="M 1193.359375 1800.109375 C 1204.296875 1731.828125 1225.507813 1669.71875 1275.039063 1624.640625 C 1308.554688 1636.359375 1335.664063 1628.78125 1356.367188 1601.945313 C 1366.5625 1638.46875 1386.757813 1673.3125 1423.632813 1684.445313 C 1445.976563 1755.5 1444.0625 1816.90625 1416.835938 1874.601563 C 1477.03125 1845.070313 1506.640625 1786.085938 1491.601563 1684.171875 C 1560.3125 1677.648438 1622.929688 1545.148438 1565.429688 1469.289063 C 1542.03125 1465.890625 1549.023438 1481.28125 1560.585938 1489.796875 C 1536.757813 1495.578125 1530.78125 1460.929688 1549.023438 1454.757813 C 1561.796875 1447.140625 1582.226563 1453.546875 1596.015625 1459.953125 C 1565.859375 1384.5625 1524.296875 1332.84375 1466.835938 1314.210938 C 1438.90625 1303.195313 1420.429688 1303.742188 1411.445313 1315.8125 C 1383.828125 1338.703125 1360.742188 1359.796875 1343.007813 1379.640625 C 1341.640625 1381.164063 1340.625 1383.117188 1338.945313 1384.25 C 1305.039063 1407.570313 1299.0625 1443.507813 1303.242188 1470.460938 C 1323.710938 1455.109375 1356.640625 1457.414063 1373.867188 1474.640625 C 1357.226563 1500.65625 1338.398438 1521.398438 1317.421875 1533.9375 C 1312.96875 1536.59375 1312.109375 1537.6875 1306.992188 1536.476563 C 1296.835938 1534.132813 1288.789063 1527.648438 1281.757813 1519.171875 C 1266.210938 1534.015625 1256.953125 1556.242188 1254.023438 1585.8125 C 1181.796875 1617.882813 1170.46875 1696.046875 1193.359375 1800.109375 Z M 1193.359375 1800.109375 " transform="matrix(0.1,0,0,-0.1,0,216.8)"/>
<path style="fill-rule:evenodd;fill:rgb(99.609375%,100%,98.826599%);fill-opacity:1;stroke-width:2;stroke-linecap:butt;stroke-linejoin:miter;stroke:rgb(0%,0%,0%);stroke-opacity:1;stroke-miterlimit:4;" d="M 1337.148438 1505.851563 C 1341.835938 1505.851563 1345.625 1502.023438 1345.625 1497.375 C 1345.625 1492.6875 1341.835938 1488.898438 1337.148438 1488.898438 C 1332.5 1488.898438 1328.671875 1492.6875 1328.671875 1497.375 C 1328.671875 1502.023438 1332.5 1505.851563 1337.148438 1505.851563 Z M 1337.148438 1505.851563 " transform="matrix(0.1,0,0,-0.1,0,216.8)"/>
<path style="fill-rule:evenodd;fill:rgb(99.609375%,100%,98.826599%);fill-opacity:1;stroke-width:2;stroke-linecap:butt;stroke-linejoin:miter;stroke:rgb(0%,0%,0%);stroke-opacity:1;stroke-miterlimit:4;" d="M 1311.445313 1515.96875 C 1315.9375 1518.546875 1317.34375 1516.90625 1317.34375 1513.351563 C 1317.34375 1512.414063 1317.851563 1510.304688 1317.734375 1509.445313 C 1313.828125 1482.6875 1336.71875 1466.828125 1354.414063 1480.265625 C 1362.382813 1480.421875 1364.414063 1478.195313 1365.234375 1474.09375 C 1340.039063 1446.398438 1263.125 1485.070313 1311.445313 1515.96875 Z M 1311.445313 1515.96875 " transform="matrix(0.1,0,0,-0.1,0,216.8)"/>
<path style="fill-rule:evenodd;fill:rgb(0%,0%,0%);fill-opacity:1;stroke-width:2;stroke-linecap:butt;stroke-linejoin:miter;stroke:rgb(0%,0%,0%);stroke-opacity:1;stroke-miterlimit:4;" d="M 1413.203125 1538.15625 C 1425.625 1566.90625 1436.523438 1592.6875 1445.078125 1623.429688 C 1445.15625 1623.703125 1445.273438 1623.898438 1445.390625 1624.171875 C 1447.070313 1627.84375 1448.554688 1630.890625 1450.273438 1633.703125 C 1450.546875 1634.171875 1450.976563 1634.523438 1451.367188 1634.953125 C 1469.609375 1655.1875 1492.226563 1657.453125 1521.914063 1632.492188 C 1518.867188 1625.421875 1516.25 1624.367188 1509.648438 1628.742188 C 1508.632813 1629.367188 1510.9375 1632.21875 1510.15625 1633 C 1488.28125 1653.507813 1459.609375 1642.570313 1453.75 1620.265625 L 1420 1532.726563 C 1417.304688 1532.6875 1404.570313 1529.25 1409.570313 1533.117188 C 1411.054688 1534.289063 1412.929688 1535.578125 1413.203125 1538.15625 Z M 1413.203125 1538.15625 " transform="matrix(0.1,0,0,-0.1,0,216.8)"/>
<path style="fill-rule:evenodd;fill:rgb(0%,0%,0%);fill-opacity:1;stroke-width:2;stroke-linecap:butt;stroke-linejoin:miter;stroke:rgb(0%,0%,0%);stroke-opacity:1;stroke-miterlimit:4;" d="M 1265.742188 1558.117188 C 1265.9375 1558.664063 1265.859375 1559.289063 1265.9375 1559.875 C 1270.546875 1596.4375 1295.625 1591.320313 1321.992188 1565.617188 C 1322.65625 1564.992188 1324.726563 1563.46875 1325.351563 1562.804688 C 1336.71875 1550.460938 1341.054688 1541.242188 1356.796875 1528.9375 C 1359.6875 1526.710938 1368.085938 1525.8125 1371.210938 1523.234375 C 1362.539063 1524.367188 1357.265625 1523.15625 1350.039063 1526.476563 C 1346.054688 1528.3125 1344.726563 1529.445313 1342.109375 1532.570313 C 1296.015625 1587.453125 1276.289063 1593.273438 1272.5 1551.359375 C 1272.421875 1550.695313 1272.421875 1549.992188 1272.304688 1549.289063 C 1270.039063 1535.65625 1264.570313 1555.070313 1265.742188 1558.117188 Z M 1265.742188 1558.117188 " transform="matrix(0.1,0,0,-0.1,0,216.8)"/>
<path style="fill-rule:evenodd;fill:rgb(0%,0%,0%);fill-opacity:1;stroke-width:2;stroke-linecap:butt;stroke-linejoin:miter;stroke:rgb(0%,0%,0%);stroke-opacity:1;stroke-miterlimit:4;" d="M 1419.726563 1425.96875 C 1426.445313 1425.96875 1431.914063 1424.210938 1431.914063 1422.0625 C 1431.914063 1419.914063 1426.445313 1418.15625 1419.726563 1418.15625 C 1413.046875 1418.15625 1407.578125 1419.914063 1407.578125 1422.0625 C 1407.578125 1424.210938 1413.046875 1425.96875 1419.726563 1425.96875 Z M 1419.726563 1425.96875 " transform="matrix(0.1,0,0,-0.1,0,216.8)"/>
<path style="fill-rule:evenodd;fill:rgb(0%,0%,0%);fill-opacity:1;stroke-width:2;stroke-linecap:butt;stroke-linejoin:miter;stroke:rgb(0%,0%,0%);stroke-opacity:1;stroke-miterlimit:4;" d="M 1388.125 1421.789063 C 1393.242188 1418.195313 1396.5625 1414.132813 1395.546875 1412.6875 C 1394.53125 1411.242188 1389.570313 1412.960938 1384.453125 1416.515625 C 1379.335938 1420.109375 1376.015625 1424.171875 1377.03125 1425.617188 C 1378.046875 1427.101563 1383.046875 1425.34375 1388.125 1421.789063 Z M 1388.125 1421.789063 " transform="matrix(0.1,0,0,-0.1,0,216.8)"/>
<path style="fill-rule:evenodd;fill:rgb(0%,0%,0%);fill-opacity:1;stroke-width:2;stroke-linecap:butt;stroke-linejoin:miter;stroke:rgb(0%,0%,0%);stroke-opacity:1;stroke-miterlimit:4;" d="M 1462.734375 1396.671875 L 1479.375 1412.804688 L 1465.703125 1386.164063 C 1461.367188 1355.929688 1437.304688 1334.445313 1406.835938 1355.070313 C 1405.3125 1356.085938 1403.789063 1357.21875 1402.226563 1358.46875 C 1400.351563 1366.476563 1402.34375 1373.664063 1404.765625 1379.914063 C 1399.882813 1382.6875 1398.28125 1382.414063 1395 1386.476563 C 1392.773438 1389.171875 1387.65625 1393.820313 1394.140625 1393.976563 C 1400.78125 1394.171875 1407.421875 1392.609375 1414.101563 1388.46875 C 1428.398438 1400.929688 1441.484375 1407.21875 1462.734375 1396.671875 Z M 1462.734375 1396.671875 " transform="matrix(0.1,0,0,-0.1,0,216.8)"/>
<path style="fill-rule:evenodd;fill:rgb(99.609375%,100%,98.826599%);fill-opacity:1;stroke-width:2;stroke-linecap:butt;stroke-linejoin:miter;stroke:rgb(0%,0%,0%);stroke-opacity:1;stroke-miterlimit:4;" d="M 1440.46875 1375.5 C 1445 1375.5 1448.671875 1372.296875 1448.671875 1368.3125 C 1448.671875 1364.367188 1445 1361.125 1440.46875 1361.125 C 1435.976563 1361.125 1432.265625 1364.367188 1432.265625 1368.3125 C 1432.265625 1372.296875 1435.976563 1375.5 1440.46875 1375.5 Z M 1440.46875 1375.5 " transform="matrix(0.1,0,0,-0.1,0,216.8)"/>
<path style="fill-rule:evenodd;fill:rgb(94.921875%,5.488586%,5.488586%);fill-opacity:1;stroke-width:2;stroke-linecap:butt;stroke-linejoin:miter;stroke:rgb(0%,0%,0%);stroke-opacity:1;stroke-miterlimit:4;" d="M 1658.828125 1272.414063 C 1789.296875 1283.9375 1795.273438 1231.28125 1783.476563 1114.875 C 1769.335938 1004.25 1758.59375 885.226563 1751.5625 756.828125 C 1791.757813 748.273438 1769.335938 503 1797.421875 288.976563 C 1828.515625 306.945313 1875.039063 313.351563 1928.945313 319.25 C 1966.367188 316.242188 1996.484375 310.8125 2018.203125 295.03125 C 2026.953125 288.625 2033.59375 286.320313 2018.828125 290.734375 C 1998.867188 296.710938 1978.75 300.421875 1959.53125 302.882813 C 1936.953125 306.867188 1936.40625 304.09375 1957.890625 294.484375 L 2010.898438 268.976563 C 2022.929688 263.507813 2025.390625 258.742188 2015.78125 257.140625 L 1945.46875 288.46875 C 1921.679688 300.96875 1918.828125 287.257813 1938.28125 282.6875 L 2015.078125 249.992188 C 2025.351563 246.007813 2030.625 242.257813 2020.195313 240.695313 L 1936.210938 271.789063 C 1913.90625 275.421875 1915.78125 272.648438 1931.171875 264.835938 L 1995.273438 243.546875 C 2013.632813 239.25 2016.914063 235.382813 2004.0625 234.484375 L 1934.179688 249.40625 C 1926.40625 249.289063 1918.632813 252.882813 1910.898438 252.765625 C 1904.023438 252.6875 1897.1875 248.820313 1890.3125 248.742188 L 1862.773438 239.523438 C 1852.851563 236.046875 1843.554688 233.351563 1853.75 229.445313 L 1905.742188 208 C 1919.453125 203.546875 1921.757813 198.625 1916.25 193.351563 C 1866.5625 199.914063 1824.0625 208.195313 1790.742188 206.046875 C 1772.695313 204.875 1761.5625 225.148438 1752.617188 240.304688 C 1702.304688 370.578125 1656.40625 506.203125 1649.414063 689.25 C 1642.226563 761.164063 1635.976563 834.132813 1632.539063 909.796875 C 1628.007813 991.867188 1623.554688 1046.945313 1604.023438 1032.53125 C 1617.34375 1026.359375 1623.75 988.195313 1618.28125 903.273438 C 1611.210938 909.953125 1604.21875 918.898438 1599.023438 931.203125 C 1593.046875 957.453125 1589.296875 990.617188 1590.820313 1016.828125 C 1588.945313 1003.664063 1586.210938 990.851563 1582.109375 978.664063 C 1557.96875 1018.859375 1544.101563 1072.804688 1557.109375 1110.890625 C 1557.578125 1112.257813 1557.734375 1113.703125 1558.085938 1115.109375 C 1575.898438 1167.023438 1607.773438 1218.390625 1658.828125 1272.414063 Z M 1658.828125 1272.414063 " transform="matrix(0.1,0,0,-0.1,0,216.8)"/>
<path style="fill-rule:evenodd;fill:rgb(94.921875%,5.488586%,5.488586%);fill-opacity:1;stroke-width:2;stroke-linecap:butt;stroke-linejoin:miter;stroke:rgb(0%,0%,0%);stroke-opacity:1;stroke-miterlimit:4;" d="M 1408.125 1265.578125 C 1368.398438 1246.90625 1340.898438 1224.289063 1318.984375 1200.265625 L 1296.132813 1199.523438 C 1303.59375 1283 1350.46875 1270.8125 1408.125 1265.578125 Z M 1408.125 1265.578125 " transform="matrix(0.1,0,0,-0.1,0,216.8)"/>
<path style="fill-rule:evenodd;fill:rgb(94.921875%,5.488586%,5.488586%);fill-opacity:1;stroke-width:2;stroke-linecap:butt;stroke-linejoin:miter;stroke:rgb(0%,0%,0%);stroke-opacity:1;stroke-miterlimit:4;" d="M 1167.265625 937.882813 C 1207.65625 930.851563 1246.210938 934.835938 1283.828125 944.367188 C 1314.84375 857.296875 1388.945313 821.476563 1499.296875 854.289063 C 1518.515625 852.84375 1533.945313 842.921875 1546.210938 825.96875 C 1492.539063 779.367188 1445.117188 734.875 1406.875 693.429688 C 1394.21875 679.5625 1392.890625 664.875 1402.929688 649.367188 C 1426.328125 611.75 1445.195313 574.132813 1454.0625 536.515625 C 1312.617188 507.296875 1164.335938 540.109375 1150.390625 637.960938 C 1155.195313 658.390625 1162.65625 677.492188 1173.945313 694.679688 C 1184.648438 710.421875 1188.632813 734.835938 1188.046875 765.1875 C 1173.359375 821.945313 1169.0625 881.125 1167.265625 937.882813 Z M 1167.265625 937.882813 " transform="matrix(0.1,0,0,-0.1,0,216.8)"/>
<path style="fill-rule:evenodd;fill:rgb(0%,0%,0%);fill-opacity:1;stroke-width:2;stroke-linecap:butt;stroke-linejoin:miter;stroke:rgb(0%,0%,0%);stroke-opacity:1;stroke-miterlimit:4;" d="M 1222.773438 668.507813 C 1221.914063 668.9375 1220.078125 669.953125 1220 668.976563 C 1219.609375 664.523438 1216.523438 659.835938 1211.601563 660.148438 C 1211.015625 660.1875 1210.742188 660.03125 1210.46875 659.445313 C 1207.421875 653.273438 1208.007813 647.960938 1211.757813 646.125 C 1215.507813 644.289063 1221.054688 647.804688 1224.0625 653.976563 C 1227.109375 660.148438 1226.523438 666.671875 1222.773438 668.507813 Z M 1222.773438 668.507813 " transform="matrix(0.1,0,0,-0.1,0,216.8)"/>
<path style="fill-rule:evenodd;fill:rgb(94.921875%,5.488586%,5.488586%);fill-opacity:1;stroke-width:2;stroke-linecap:butt;stroke-linejoin:miter;stroke:rgb(0%,0%,0%);stroke-opacity:1;stroke-miterlimit:4;" d="M 1493.632813 457.882813 C 1542.539063 333.898438 1603.828125 295.96875 1716.289063 311.242188 C 1718.554688 296.164063 1727.070313 277.296875 1740 264.015625 C 1641.796875 208.820313 1543.125 232.296875 1475.15625 331.671875 C 1494.726563 373.976563 1491.640625 417.648438 1493.632813 457.882813 Z M 1493.632813 457.882813 " transform="matrix(0.1,0,0,-0.1,0,216.8)"/>
<path style="fill-rule:evenodd;fill:rgb(94.921875%,5.488586%,5.488586%);fill-opacity:1;stroke-width:2;stroke-linecap:butt;stroke-linejoin:miter;stroke:rgb(0%,0%,0%);stroke-opacity:1;stroke-miterlimit:4;" d="M 1875.117188 664.171875 C 1777.382813 865.929688 1814.375 1052.179688 1920.664063 1125.734375 C 1985.46875 1201.984375 2020.742188 1171.007813 2045.976563 1108.46875 C 2058.085938 1039.328125 2061.015625 971.59375 2056.171875 902.453125 C 2054.84375 883.117188 2058.046875 879.484375 2040.820313 870.382813 C 1995.664063 846.515625 1964.960938 860.304688 1950.117188 932.21875 C 1944.6875 938.273438 1936.992188 927.0625 1927.421875 901.515625 C 1912.578125 951.59375 1920.898438 997.609375 1948.476563 1040.1875 C 1955.3125 1005.070313 1968.75 973.273438 1992.1875 946.046875 C 2002.109375 934.5625 2003.320313 938.117188 1989.023438 940.148438 C 1978.632813 941.632813 1971.25 942.0625 1966.25 938.15625 C 1980.585938 899.40625 2008.398438 874.5625 2030.117188 910.539063 C 2034.453125 974.835938 2022.070313 1039.132813 2002.070313 1103.429688 C 1980.351563 1144.171875 1944.6875 1118.859375 1895.15625 1027.492188 C 1840.273438 926.945313 1845.46875 809.210938 1902.304688 714.757813 C 1931.523438 627.21875 1958.515625 484.875 1844.140625 344.679688 L 1802.1875 313.273438 L 1798.320313 379.328125 C 1875.039063 502.375 1879.921875 583.9375 1875.117188 664.171875 Z M 1875.117188 664.171875 " transform="matrix(0.1,0,0,-0.1,0,216.8)"/>
<path style="fill-rule:evenodd;fill:rgb(94.921875%,5.488586%,5.488586%);fill-opacity:1;stroke-width:2;stroke-linecap:butt;stroke-linejoin:miter;stroke:rgb(0%,0%,0%);stroke-opacity:1;stroke-miterlimit:4;" d="M 1144.179688 609.445313 C 1166.953125 565.539063 1190.585938 516.398438 1218.945313 461.359375 C 1219.375 432.804688 1226.289063 424.835938 1239.765625 437.492188 C 1290.390625 366.125 1317.65625 293.546875 1302.070313 218.859375 C 1298.046875 195.5 1287.460938 182.609375 1270.390625 180.226563 C 1259.84375 178.742188 1251.09375 180.148438 1240 178.15625 C 1236.914063 177.609375 1233.710938 178 1230.390625 177.53125 C 1149.375 165.851563 1003.125 186.476563 869.375 440.617188 C 1012.851563 463.546875 1106.757813 533.078125 1144.179688 609.445313 Z M 1144.179688 609.445313 " transform="matrix(0.1,0,0,-0.1,0,216.8)"/>
<path style="fill-rule:evenodd;fill:rgb(94.921875%,5.488586%,5.488586%);fill-opacity:1;stroke-width:2;stroke-linecap:butt;stroke-linejoin:miter;stroke:rgb(0%,0%,0%);stroke-opacity:1;stroke-miterlimit:4;" d="M 765.078125 394.054688 C 795.273438 387.492188 837.421875 389.914063 870.976563 403.625 C 907.03125 336.242188 970.898438 257.960938 1027.851563 201.007813 C 937.109375 229.757813 818.4375 304.875 765.078125 394.054688 Z M 765.078125 394.054688 " transform="matrix(0.1,0,0,-0.1,0,216.8)"/>
<path style="fill-rule:evenodd;fill:rgb(5.099487%,5.099487%,3.921509%);fill-opacity:1;stroke-width:2;stroke-linecap:butt;stroke-linejoin:miter;stroke:rgb(0%,0%,0%);stroke-opacity:1;stroke-miterlimit:4;" d="M 795.976563 554.328125 C 930.664063 561.359375 1018.945313 616.007813 1092.890625 713.078125 L 1142.734375 615.8125 C 1055.859375 508.546875 972.03125 467.375 859.882813 457.570313 Z M 795.976563 554.328125 " transform="matrix(0.1,0,0,-0.1,0,216.8)"/>
<path style="fill-rule:evenodd;fill:rgb(5.099487%,5.099487%,3.921509%);fill-opacity:1;stroke-width:2;stroke-linecap:butt;stroke-linejoin:miter;stroke:rgb(0%,0%,0%);stroke-opacity:1;stroke-miterlimit:4;" d="M 704.140625 485.96875 C 740.976563 483.078125 787.1875 485.734375 818.476563 492.960938 L 869.492188 410.460938 C 834.726563 401.4375 789.453125 398.234375 757.460938 404.679688 Z M 704.140625 485.96875 " transform="matrix(0.1,0,0,-0.1,0,216.8)"/>
<path style="fill-rule:evenodd;fill:rgb(23.925781%,21.972656%,21.972656%);fill-opacity:1;stroke-width:2;stroke-linecap:butt;stroke-linejoin:miter;stroke:rgb(0%,0%,0%);stroke-opacity:1;stroke-miterlimit:4;" d="M 283.984375 1889.992188 C 421.054688 1772.375 417.734375 1725.382813 563.4375 1369.796875 C 602.890625 1273.625 673.164063 1181.398438 740.351563 1092.023438 C 868.320313 967.21875 987.539063 843.3125 1085.273438 721.554688 C 1025.3125 619.875 919.453125 571.59375 794.570313 559.5625 C 732.5 655.382813 688.984375 815.578125 664.84375 929.367188 C 648.75 1005.1875 595.585938 1049.171875 564.765625 1068.117188 C 412.1875 1152.84375 402.734375 1310.5 363.476563 1663.976563 C 346.210938 1747.375 292.421875 1815.695313 271.484375 1875.8125 Z M 283.984375 1889.992188 " transform="matrix(0.1,0,0,-0.1,0,216.8)"/>
<path style="fill-rule:evenodd;fill:rgb(23.925781%,21.972656%,21.972656%);fill-opacity:1;stroke-width:2;stroke-linecap:butt;stroke-linejoin:miter;stroke:rgb(0%,0%,0%);stroke-opacity:1;stroke-miterlimit:4;" d="M 300.039063 527.882813 L 520.234375 929.875 C 543.867188 971.515625 589.726563 996.242188 622.578125 975.96875 C 639.765625 965.382813 649.609375 941.515625 658.945313 903.3125 C 698.828125 738.976563 748.984375 608.976563 814.492188 499.484375 C 780 493.429688 737.96875 489.132813 703.476563 493.507813 C 664.179688 568.039063 641.679688 626.359375 630.195313 679.992188 C 641.796875 726.242188 651.40625 778.351563 652.578125 845.460938 C 649.921875 848.039063 646.132813 846.945313 644.921875 839.328125 C 645.078125 782.179688 632.851563 716.710938 613.554688 654.914063 C 521.40625 452.492188 274.804688 400.8125 220.195313 230.03125 C 178.28125 159.132813 114.140625 36.515625 61.210938 58.273438 C 40.078125 167.21875 142.070313 334.328125 300.039063 527.882813 Z M 300.039063 527.882813 " transform="matrix(0.1,0,0,-0.1,0,216.8)"/>
<path style="fill-rule:evenodd;fill:rgb(0%,0%,0%);fill-opacity:1;stroke-width:2;stroke-linecap:butt;stroke-linejoin:miter;stroke:rgb(0%,0%,0%);stroke-opacity:1;stroke-miterlimit:4;" d="M 1476.171875 1575.148438 C 1492.382813 1578.9375 1509.726563 1574.445313 1529.6875 1570.65625 L 1546.835938 1598.273438 C 1543.398438 1586.828125 1541.40625 1573.78125 1539.84375 1562.765625 C 1539.257813 1558.546875 1538.671875 1556.085938 1537.070313 1552.140625 C 1528.203125 1530.03125 1514.296875 1510.421875 1497.070313 1496.90625 C 1491.445313 1492.492188 1486.09375 1492.296875 1480.039063 1490.8125 L 1455.039063 1486.164063 L 1452.890625 1485.773438 C 1447.578125 1485.34375 1447.382813 1483.703125 1446.796875 1488.585938 C 1446.71875 1489.289063 1446.640625 1489.992188 1446.5625 1490.65625 C 1442.226563 1533.9375 1452.929688 1561.242188 1476.171875 1575.148438 Z M 1476.171875 1575.148438 " transform="matrix(0.1,0,0,-0.1,0,216.8)"/>
<path style="fill-rule:evenodd;fill:rgb(99.609375%,100%,98.826599%);fill-opacity:1;stroke-width:2;stroke-linecap:butt;stroke-linejoin:miter;stroke:rgb(0%,0%,0%);stroke-opacity:1;stroke-miterlimit:4;" d="M 1463.125 1544.054688 C 1465.195313 1548 1467.578125 1548.195313 1470.234375 1544.640625 C 1478.632813 1514.523438 1493.515625 1505.734375 1522.734375 1543.898438 C 1525.273438 1544.757813 1526.445313 1543.859375 1526.210938 1541.164063 C 1510.625 1515.070313 1491.015625 1488.429688 1453.90625 1494.367188 C 1451.289063 1512.179688 1454.414063 1530.03125 1463.125 1544.054688 Z M 1463.125 1544.054688 " transform="matrix(0.1,0,0,-0.1,0,216.8)"/>
<path style="fill-rule:evenodd;fill:rgb(100%,100%,100%);fill-opacity:1;stroke-width:2;stroke-linecap:butt;stroke-linejoin:miter;stroke:rgb(0%,0%,0%);stroke-opacity:1;stroke-miterlimit:4;" d="M 1501.015625 1556.710938 C 1505.898438 1556.710938 1509.882813 1552.765625 1509.882813 1547.84375 C 1509.882813 1542.960938 1505.898438 1538.976563 1501.015625 1538.976563 C 1496.132813 1538.976563 1492.148438 1542.960938 1492.148438 1547.84375 C 1492.148438 1552.765625 1496.132813 1556.710938 1501.015625 1556.710938 Z M 1501.015625 1556.710938 " transform="matrix(0.1,0,0,-0.1,0,216.8)"/>
<path style="fill-rule:evenodd;fill:rgb(100%,100%,100%);fill-opacity:1;stroke-width:2;stroke-linecap:butt;stroke-linejoin:miter;stroke:rgb(0%,0%,0%);stroke-opacity:1;stroke-miterlimit:4;" d="M 1359.257813 1771.242188 C 1398.007813 1772.570313 1436.71875 1777.6875 1436.71875 1772.335938 C 1436.71875 1771.007813 1436.445313 1764.601563 1432.070313 1764.523438 C 1419.375 1764.367188 1388.984375 1760.539063 1359.921875 1760.539063 C 1321.171875 1760.539063 1291.015625 1746.320313 1291.015625 1751.671875 C 1291.015625 1757.023438 1320.507813 1769.914063 1359.257813 1771.242188 Z M 1359.257813 1771.242188 " transform="matrix(0.1,0,0,-0.1,0,216.8)"/>
<path style="fill-rule:evenodd;fill:rgb(100%,100%,100%);fill-opacity:1;stroke-width:2;stroke-linecap:butt;stroke-linejoin:miter;stroke:rgb(0%,0%,0%);stroke-opacity:1;stroke-miterlimit:4;" d="M 1672.03125 1538.117188 C 1665.429688 1506.125 1661.367188 1560.1875 1665.117188 1586.789063 C 1679.375 1688.234375 1634.140625 1716.632813 1600.664063 1731.90625 C 1550.898438 1754.601563 1498.710938 1748.234375 1497.226563 1758.46875 C 1497.070313 1759.601563 1496.992188 1766.984375 1499.375 1766.828125 C 1534.140625 1764.601563 1561.71875 1757.0625 1592.148438 1750.265625 C 1657.695313 1735.65625 1693.90625 1644.289063 1672.03125 1538.117188 Z M 1672.03125 1538.117188 " transform="matrix(0.1,0,0,-0.1,0,216.8)"/>
<path style="fill-rule:evenodd;fill:rgb(100%,100%,100%);fill-opacity:1;stroke-width:2;stroke-linecap:butt;stroke-linejoin:miter;stroke:rgb(0%,0%,0%);stroke-opacity:1;stroke-miterlimit:4;" d="M 1549.101563 894.015625 C 1570.859375 912.257813 1589.023438 944.132813 1592.695313 939.796875 C 1596.328125 935.421875 1576.25 908.078125 1554.53125 889.796875 C 1532.8125 871.554688 1506.71875 851.28125 1503.046875 855.617188 C 1499.414063 859.953125 1527.382813 875.734375 1549.101563 894.015625 Z M 1549.101563 894.015625 " transform="matrix(0.1,0,0,-0.1,0,216.8)"/>
</g>
</svg>
